<svg width="1454.2" height="862.4000000000001" xmlns="http://www.w3.org/2000/svg" xmlns:xlink="http://www.w3.org/1999/xlink"><line x1="579.75" y1="7.5" x2="293.125" y2="32.0" style="stroke:black; stroke-width:1px;" />
<line x1="293.125" y1="39.5" x2="15.0" y2="64.0" style="stroke:black; stroke-width:1px;" />
<line x1="293.125" y1="39.5" x2="57.5" y2="64.0" style="stroke:black; stroke-width:1px;" />
<line x1="293.125" y1="39.5" x2="89.0" y2="64.0" style="stroke:black; stroke-width:1px;" />
<line x1="293.125" y1="39.5" x2="124.0" y2="64.0" style="stroke:black; stroke-width:1px;" />
<line x1="124.0" y1="71.5" x2="104.75" y2="96.0" style="stroke:black; stroke-width:1px;" />
<line x1="124.0" y1="71.5" x2="125.25" y2="96.0" style="stroke:black; stroke-width:1px;" />
<line x1="124.0" y1="71.5" x2="143.25" y2="96.0" style="stroke:black; stroke-width:1px;" />
<line x1="293.125" y1="39.5" x2="212.5" y2="64.0" style="stroke:black; stroke-width:1px;" />
<line x1="293.125" y1="39.5" x2="301.0" y2="64.0" style="stroke:black; stroke-width:1px;" />
<line x1="301.0" y1="71.5" x2="183.25" y2="96.0" style="stroke:black; stroke-width:1px;" />
<line x1="301.0" y1="71.5" x2="219.75" y2="96.0" style="stroke:black; stroke-width:1px;" />
<line x1="301.0" y1="71.5" x2="252.25" y2="96.0" style="stroke:black; stroke-width:1px;" />
<line x1="252.25" y1="103.5" x2="230.5" y2="128.0" style="stroke:black; stroke-width:1px;" />
<line x1="252.25" y1="103.5" x2="256.0" y2="128.0" style="stroke:black; stroke-width:1px;" />
<line x1="252.25" y1="103.5" x2="274.0" y2="128.0" style="stroke:black; stroke-width:1px;" />
<line x1="301.0" y1="71.5" x2="284.75" y2="96.0" style="stroke:black; stroke-width:1px;" />
<line x1="301.0" y1="71.5" x2="299.25" y2="96.0" style="stroke:black; stroke-width:1px;" />
<line x1="301.0" y1="71.5" x2="330.25" y2="96.0" style="stroke:black; stroke-width:1px;" />
<line x1="301.0" y1="71.5" x2="361.75" y2="96.0" style="stroke:black; stroke-width:1px;" />
<line x1="301.0" y1="71.5" x2="390.25" y2="96.0" style="stroke:black; stroke-width:1px;" />
<line x1="390.25" y1="103.5" x2="319.375" y2="128.0" style="stroke:black; stroke-width:1px;" />
<line x1="390.25" y1="103.5" x2="347.875" y2="128.0" style="stroke:black; stroke-width:1px;" />
<line x1="347.875" y1="135.5" x2="318.625" y2="160.0" style="stroke:black; stroke-width:1px;" />
<line x1="347.875" y1="135.5" x2="342.625" y2="160.0" style="stroke:black; stroke-width:1px;" />
<line x1="347.875" y1="135.5" x2="377.125" y2="160.0" style="stroke:black; stroke-width:1px;" />
<line x1="377.125" y1="167.5" x2="377.125" y2="192.0" style="stroke:black; stroke-width:1px;" />
<line x1="390.25" y1="103.5" x2="380.25" y2="128.0" style="stroke:black; stroke-width:1px;" />
<line x1="390.25" y1="103.5" x2="415.625" y2="128.0" style="stroke:black; stroke-width:1px;" />
<line x1="415.625" y1="135.5" x2="415.625" y2="160.0" style="stroke:black; stroke-width:1px;" />
<line x1="390.25" y1="103.5" x2="446.625" y2="128.0" style="stroke:black; stroke-width:1px;" />
<line x1="390.25" y1="103.5" x2="461.125" y2="128.0" style="stroke:black; stroke-width:1px;" />
<line x1="301.0" y1="71.5" x2="418.75" y2="96.0" style="stroke:black; stroke-width:1px;" />
<line x1="293.125" y1="39.5" x2="411.625" y2="64.0" style="stroke:black; stroke-width:1px;" />
<line x1="293.125" y1="39.5" x2="522.25" y2="64.0" style="stroke:black; stroke-width:1px;" />
<line x1="522.25" y1="71.5" x2="444.75" y2="96.0" style="stroke:black; stroke-width:1px;" />
<line x1="522.25" y1="71.5" x2="470.75" y2="96.0" style="stroke:black; stroke-width:1px;" />
<line x1="522.25" y1="71.5" x2="485.75" y2="96.0" style="stroke:black; stroke-width:1px;" />
<line x1="522.25" y1="71.5" x2="500.25" y2="96.0" style="stroke:black; stroke-width:1px;" />
<line x1="522.25" y1="71.5" x2="518.25" y2="96.0" style="stroke:black; stroke-width:1px;" />
<line x1="522.25" y1="71.5" x2="536.75" y2="96.0" style="stroke:black; stroke-width:1px;" />
<line x1="522.25" y1="71.5" x2="568.25" y2="96.0" style="stroke:black; stroke-width:1px;" />
<line x1="568.25" y1="103.5" x2="568.25" y2="128.0" style="stroke:black; stroke-width:1px;" />
<line x1="522.25" y1="71.5" x2="599.75" y2="96.0" style="stroke:black; stroke-width:1px;" />
<line x1="293.125" y1="39.5" x2="556.75" y2="64.0" style="stroke:black; stroke-width:1px;" />
<line x1="293.125" y1="39.5" x2="571.25" y2="64.0" style="stroke:black; stroke-width:1px;" />
<line x1="579.75" y1="7.5" x2="559.25" y2="32.0" style="stroke:black; stroke-width:1px;" />
<line x1="579.75" y1="7.5" x2="825.375" y2="32.0" style="stroke:black; stroke-width:1px;" />
<line x1="825.375" y1="39.5" x2="597.25" y2="64.0" style="stroke:black; stroke-width:1px;" />
<line x1="825.375" y1="39.5" x2="641.25" y2="64.0" style="stroke:black; stroke-width:1px;" />
<line x1="825.375" y1="39.5" x2="674.25" y2="64.0" style="stroke:black; stroke-width:1px;" />
<line x1="825.375" y1="39.5" x2="709.25" y2="64.0" style="stroke:black; stroke-width:1px;" />
<line x1="709.25" y1="71.5" x2="686.0" y2="96.0" style="stroke:black; stroke-width:1px;" />
<line x1="709.25" y1="71.5" x2="701.5" y2="96.0" style="stroke:black; stroke-width:1px;" />
<line x1="709.25" y1="71.5" x2="732.5" y2="96.0" style="stroke:black; stroke-width:1px;" />
<line x1="825.375" y1="39.5" x2="748.75" y2="64.0" style="stroke:black; stroke-width:1px;" />
<line x1="825.375" y1="39.5" x2="788.25" y2="64.0" style="stroke:black; stroke-width:1px;" />
<line x1="788.25" y1="71.5" x2="765.0" y2="96.0" style="stroke:black; stroke-width:1px;" />
<line x1="788.25" y1="71.5" x2="780.5" y2="96.0" style="stroke:black; stroke-width:1px;" />
<line x1="788.25" y1="71.5" x2="811.5" y2="96.0" style="stroke:black; stroke-width:1px;" />
<line x1="825.375" y1="39.5" x2="827.75" y2="64.0" style="stroke:black; stroke-width:1px;" />
<line x1="825.375" y1="39.5" x2="867.25" y2="64.0" style="stroke:black; stroke-width:1px;" />
<line x1="867.25" y1="71.5" x2="844.0" y2="96.0" style="stroke:black; stroke-width:1px;" />
<line x1="867.25" y1="71.5" x2="859.5" y2="96.0" style="stroke:black; stroke-width:1px;" />
<line x1="867.25" y1="71.5" x2="890.5" y2="96.0" style="stroke:black; stroke-width:1px;" />
<line x1="825.375" y1="39.5" x2="935.875" y2="64.0" style="stroke:black; stroke-width:1px;" />
<line x1="825.375" y1="39.5" x2="1004.5" y2="64.0" style="stroke:black; stroke-width:1px;" />
<line x1="1004.5" y1="71.5" x2="931.0" y2="96.0" style="stroke:black; stroke-width:1px;" />
<line x1="1004.5" y1="71.5" x2="955.0" y2="96.0" style="stroke:black; stroke-width:1px;" />
<line x1="1004.5" y1="71.5" x2="970.0" y2="96.0" style="stroke:black; stroke-width:1px;" />
<line x1="1004.5" y1="71.5" x2="984.5" y2="96.0" style="stroke:black; stroke-width:1px;" />
<line x1="1004.5" y1="71.5" x2="1002.5" y2="96.0" style="stroke:black; stroke-width:1px;" />
<line x1="1004.5" y1="71.5" x2="1021.0" y2="96.0" style="stroke:black; stroke-width:1px;" />
<line x1="1004.5" y1="71.5" x2="1049.5" y2="96.0" style="stroke:black; stroke-width:1px;" />
<line x1="1049.5" y1="103.5" x2="621.8125" y2="128.0" style="stroke:black; stroke-width:1px;" />
<line x1="1049.5" y1="103.5" x2="650.3125" y2="128.0" style="stroke:black; stroke-width:1px;" />
<line x1="650.3125" y1="135.5" x2="568.5625" y2="160.0" style="stroke:black; stroke-width:1px;" />
<line x1="568.5625" y1="167.5" x2="541.8125" y2="192.0" style="stroke:black; stroke-width:1px;" />
<line x1="568.5625" y1="167.5" x2="560.8125" y2="192.0" style="stroke:black; stroke-width:1px;" />
<line x1="568.5625" y1="167.5" x2="595.3125" y2="192.0" style="stroke:black; stroke-width:1px;" />
<line x1="595.3125" y1="199.5" x2="595.3125" y2="224.0" style="stroke:black; stroke-width:1px;" />
<line x1="650.3125" y1="135.5" x2="596.5625" y2="160.0" style="stroke:black; stroke-width:1px;" />
<line x1="650.3125" y1="135.5" x2="632.5625" y2="160.0" style="stroke:black; stroke-width:1px;" />
<line x1="650.3125" y1="135.5" x2="669.0625" y2="160.0" style="stroke:black; stroke-width:1px;" />
<line x1="650.3125" y1="135.5" x2="700.5625" y2="160.0" style="stroke:black; stroke-width:1px;" />
<line x1="700.5625" y1="167.5" x2="700.5625" y2="192.0" style="stroke:black; stroke-width:1px;" />
<line x1="650.3125" y1="135.5" x2="732.0625" y2="160.0" style="stroke:black; stroke-width:1px;" />
<line x1="1049.5" y1="103.5" x2="746.3125" y2="128.0" style="stroke:black; stroke-width:1px;" />
<line x1="1049.5" y1="103.5" x2="842.3125" y2="128.0" style="stroke:black; stroke-width:1px;" />
<line x1="842.3125" y1="135.5" x2="760.5625" y2="160.0" style="stroke:black; stroke-width:1px;" />
<line x1="760.5625" y1="167.5" x2="733.8125" y2="192.0" style="stroke:black; stroke-width:1px;" />
<line x1="760.5625" y1="167.5" x2="752.8125" y2="192.0" style="stroke:black; stroke-width:1px;" />
<line x1="760.5625" y1="167.5" x2="787.3125" y2="192.0" style="stroke:black; stroke-width:1px;" />
<line x1="787.3125" y1="199.5" x2="787.3125" y2="224.0" style="stroke:black; stroke-width:1px;" />
<line x1="842.3125" y1="135.5" x2="788.5625" y2="160.0" style="stroke:black; stroke-width:1px;" />
<line x1="842.3125" y1="135.5" x2="824.5625" y2="160.0" style="stroke:black; stroke-width:1px;" />
<line x1="842.3125" y1="135.5" x2="861.0625" y2="160.0" style="stroke:black; stroke-width:1px;" />
<line x1="842.3125" y1="135.5" x2="892.5625" y2="160.0" style="stroke:black; stroke-width:1px;" />
<line x1="892.5625" y1="167.5" x2="892.5625" y2="192.0" style="stroke:black; stroke-width:1px;" />
<line x1="842.3125" y1="135.5" x2="924.0625" y2="160.0" style="stroke:black; stroke-width:1px;" />
<line x1="1049.5" y1="103.5" x2="938.3125" y2="128.0" style="stroke:black; stroke-width:1px;" />
<line x1="1049.5" y1="103.5" x2="1034.3125" y2="128.0" style="stroke:black; stroke-width:1px;" />
<line x1="1034.3125" y1="135.5" x2="952.5625" y2="160.0" style="stroke:black; stroke-width:1px;" />
<line x1="952.5625" y1="167.5" x2="925.8125" y2="192.0" style="stroke:black; stroke-width:1px;" />
<line x1="952.5625" y1="167.5" x2="944.8125" y2="192.0" style="stroke:black; stroke-width:1px;" />
<line x1="952.5625" y1="167.5" x2="979.3125" y2="192.0" style="stroke:black; stroke-width:1px;" />
<line x1="979.3125" y1="199.5" x2="979.3125" y2="224.0" style="stroke:black; stroke-width:1px;" />
<line x1="1034.3125" y1="135.5" x2="980.5625" y2="160.0" style="stroke:black; stroke-width:1px;" />
<line x1="1034.3125" y1="135.5" x2="1016.5625" y2="160.0" style="stroke:black; stroke-width:1px;" />
<line x1="1034.3125" y1="135.5" x2="1053.0625" y2="160.0" style="stroke:black; stroke-width:1px;" />
<line x1="1034.3125" y1="135.5" x2="1084.5625" y2="160.0" style="stroke:black; stroke-width:1px;" />
<line x1="1084.5625" y1="167.5" x2="1084.5625" y2="192.0" style="stroke:black; stroke-width:1px;" />
<line x1="1034.3125" y1="135.5" x2="1116.0625" y2="160.0" style="stroke:black; stroke-width:1px;" />
<line x1="1049.5" y1="103.5" x2="1132.5625" y2="128.0" style="stroke:black; stroke-width:1px;" />
<line x1="1049.5" y1="103.5" x2="1230.8125" y2="128.0" style="stroke:black; stroke-width:1px;" />
<line x1="1230.8125" y1="135.5" x2="1147.5625" y2="160.0" style="stroke:black; stroke-width:1px;" />
<line x1="1147.5625" y1="167.5" x2="1147.5625" y2="192.0" style="stroke:black; stroke-width:1px;" />
<line x1="1230.8125" y1="135.5" x2="1178.5625" y2="160.0" style="stroke:black; stroke-width:1px;" />
<line x1="1230.8125" y1="135.5" x2="1214.5625" y2="160.0" style="stroke:black; stroke-width:1px;" />
<line x1="1230.8125" y1="135.5" x2="1251.0625" y2="160.0" style="stroke:black; stroke-width:1px;" />
<line x1="1230.8125" y1="135.5" x2="1282.5625" y2="160.0" style="stroke:black; stroke-width:1px;" />
<line x1="1282.5625" y1="167.5" x2="1211.6875" y2="192.0" style="stroke:black; stroke-width:1px;" />
<line x1="1211.6875" y1="199.5" x2="1162.9375" y2="224.0" style="stroke:black; stroke-width:1px;" />
<line x1="1162.9375" y1="231.5" x2="1162.9375" y2="256.0" style="stroke:black; stroke-width:1px;" />
<line x1="1211.6875" y1="199.5" x2="1193.9375" y2="224.0" style="stroke:black; stroke-width:1px;" />
<line x1="1211.6875" y1="199.5" x2="1219.4375" y2="224.0" style="stroke:black; stroke-width:1px;" />
<line x1="1211.6875" y1="199.5" x2="1245.4375" y2="224.0" style="stroke:black; stroke-width:1px;" />
<line x1="1211.6875" y1="199.5" x2="1260.4375" y2="224.0" style="stroke:black; stroke-width:1px;" />
<line x1="1282.5625" y1="167.5" x2="1281.0625" y2="192.0" style="stroke:black; stroke-width:1px;" />
<line x1="1282.5625" y1="167.5" x2="1353.4375" y2="192.0" style="stroke:black; stroke-width:1px;" />
<line x1="1353.4375" y1="199.5" x2="1288.9375" y2="224.0" style="stroke:black; stroke-width:1px;" />
<line x1="1288.9375" y1="231.5" x2="1240.1875" y2="256.0" style="stroke:black; stroke-width:1px;" />
<line x1="1240.1875" y1="263.5" x2="1240.1875" y2="288.0" style="stroke:black; stroke-width:1px;" />
<line x1="1288.9375" y1="231.5" x2="1271.1875" y2="256.0" style="stroke:black; stroke-width:1px;" />
<line x1="1288.9375" y1="231.5" x2="1296.6875" y2="256.0" style="stroke:black; stroke-width:1px;" />
<line x1="1288.9375" y1="231.5" x2="1322.6875" y2="256.0" style="stroke:black; stroke-width:1px;" />
<line x1="1288.9375" y1="231.5" x2="1337.6875" y2="256.0" style="stroke:black; stroke-width:1px;" />
<line x1="1353.4375" y1="199.5" x2="1353.4375" y2="224.0" style="stroke:black; stroke-width:1px;" />
<line x1="1353.4375" y1="199.5" x2="1417.9375" y2="224.0" style="stroke:black; stroke-width:1px;" />
<line x1="1417.9375" y1="231.5" x2="1369.1875" y2="256.0" style="stroke:black; stroke-width:1px;" />
<line x1="1369.1875" y1="263.5" x2="1369.1875" y2="288.0" style="stroke:black; stroke-width:1px;" />
<line x1="1417.9375" y1="231.5" x2="1400.1875" y2="256.0" style="stroke:black; stroke-width:1px;" />
<line x1="1417.9375" y1="231.5" x2="1425.6875" y2="256.0" style="stroke:black; stroke-width:1px;" />
<line x1="1417.9375" y1="231.5" x2="1451.6875" y2="256.0" style="stroke:black; stroke-width:1px;" />
<line x1="1417.9375" y1="231.5" x2="1466.6875" y2="256.0" style="stroke:black; stroke-width:1px;" />
<line x1="1230.8125" y1="135.5" x2="1314.0625" y2="160.0" style="stroke:black; stroke-width:1px;" />
<line x1="1049.5" y1="103.5" x2="1332.75" y2="128.0" style="stroke:black; stroke-width:1px;" />
<line x1="1049.5" y1="103.5" x2="1434.6875" y2="128.0" style="stroke:black; stroke-width:1px;" />
<line x1="1434.6875" y1="135.5" x2="1385.9375" y2="160.0" style="stroke:black; stroke-width:1px;" />
<line x1="1385.9375" y1="167.5" x2="1385.9375" y2="192.0" style="stroke:black; stroke-width:1px;" />
<line x1="1434.6875" y1="135.5" x2="1416.9375" y2="160.0" style="stroke:black; stroke-width:1px;" />
<line x1="1434.6875" y1="135.5" x2="1442.4375" y2="160.0" style="stroke:black; stroke-width:1px;" />
<line x1="1434.6875" y1="135.5" x2="1468.4375" y2="160.0" style="stroke:black; stroke-width:1px;" />
<line x1="1434.6875" y1="135.5" x2="1483.4375" y2="160.0" style="stroke:black; stroke-width:1px;" />
<line x1="1049.5" y1="103.5" x2="1462.6875" y2="128.0" style="stroke:black; stroke-width:1px;" />
<line x1="1049.5" y1="103.5" x2="1477.1875" y2="128.0" style="stroke:black; stroke-width:1px;" />
<line x1="1004.5" y1="71.5" x2="1078.0" y2="96.0" style="stroke:black; stroke-width:1px;" />
<line x1="825.375" y1="39.5" x2="1039.0" y2="64.0" style="stroke:black; stroke-width:1px;" />
<line x1="825.375" y1="39.5" x2="1053.5" y2="64.0" style="stroke:black; stroke-width:1px;" />
<line x1="579.75" y1="7.5" x2="866.375" y2="32.0" style="stroke:black; stroke-width:1px;" />
<rect x="1049.0625" y="160.0" width="8.0" height="15.0" style="fill:orange; stroke:rgb(0,0,0);" rx="1"/>
<text x="1051" y="169" style="font-family:sans-serif;font-size:10px;">
(
</text>
<rect x="1074.0" y="96.0" width="8.0" height="15.0" style="fill:orange; stroke:rgb(0,0,0);" rx="1"/>
<text x="1076" y="105" style="font-family:sans-serif;font-size:10px;">
}
</text>
<rect x="917.0" y="96.0" width="28.0" height="15.0" style="fill:orange; stroke:rgb(0,0,0);" rx="1"/>
<text x="919" y="105" style="font-family:sans-serif;font-size:10px;">
main
</text>
<rect x="99.0" y="64.0" width="50.0" height="15.0" style="fill:orange; stroke:rgb(0,0,0);" rx="1"/>
<text x="101" y="73" style="font-family:sans-serif;font-size:10px;">
feature:2
</text>
<rect x="1188.0625" y="160.0" width="53.0" height="15.0" style="fill:orange; stroke:rgb(0,0,0);" rx="1"/>
<text x="1190" y="169" style="font-family:sans-serif;font-size:10px;">
set_value
</text>
<rect x="1194.1875" y="192.0" width="35.0" height="15.0" style="fill:orange; stroke:rgb(0,0,0);" rx="1"/>
<text x="1196" y="201" style="font-family:sans-serif;font-size:10px;">
expr:2
</text>
<rect x="457.125" y="128.0" width="8.0" height="15.0" style="fill:orange; stroke:rgb(0,0,0);" rx="1"/>
<text x="459" y="137" style="font-family:sans-serif;font-size:10px;">
}
</text>
<rect x="681.0" y="96.0" width="10.0" height="15.0" style="fill:orange; stroke:rgb(0,0,0);" rx="1"/>
<text x="683" y="105" style="font-family:sans-serif;font-size:10px;">
a
</text>
<rect x="842.25" y="64.0" width="50.0" height="15.0" style="fill:orange; stroke:rgb(0,0,0);" rx="1"/>
<text x="844" y="73" style="font-family:sans-serif;font-size:10px;">
feature:2
</text>
<rect x="1219.1875" y="256.0" width="42.0" height="15.0" style="fill:orange; stroke:rgb(0,0,0);" rx="1"/>
<text x="1221" y="265" style="font-family:sans-serif;font-size:10px;">
expr:19
</text>
<rect x="1049.5" y="64.0" width="8.0" height="15.0" style="fill:orange; stroke:rgb(0,0,0);" rx="1"/>
<text x="1051" y="73" style="font-family:sans-serif;font-size:10px;">
}
</text>
<rect x="937.8125" y="192.0" width="14.0" height="15.0" style="fill:orange; stroke:rgb(0,0,0);" rx="1"/>
<text x="939" y="201" style="font-family:sans-serif;font-size:10px;">
&lt;-
</text>
<rect x="1016.8125" y="128.0" width="35.0" height="15.0" style="fill:orange; stroke:rgb(0,0,0);" rx="1"/>
<text x="1018" y="137" style="font-family:sans-serif;font-size:10px;">
expr:2
</text>
<rect x="1112.0625" y="160.0" width="8.0" height="15.0" style="fill:orange; stroke:rgb(0,0,0);" rx="1"/>
<text x="1114" y="169" style="font-family:sans-serif;font-size:10px;">
)
</text>
<rect x="1380.9375" y="192.0" width="10.0" height="15.0" style="fill:orange; stroke:rgb(0,0,0);" rx="1"/>
<text x="1382" y="201" style="font-family:sans-serif;font-size:10px;">
a
</text>
<rect x="1396.6875" y="256.0" width="7.0" height="15.0" style="fill:orange; stroke:rgb(0,0,0);" rx="1"/>
<text x="1398" y="265" style="font-family:sans-serif;font-size:10px;">
.
</text>
<rect x="1256.4375" y="224.0" width="8.0" height="15.0" style="fill:orange; stroke:rgb(0,0,0);" rx="1"/>
<text x="1258" y="233" style="font-family:sans-serif;font-size:10px;">
)
</text>
<rect x="1261.5625" y="160.0" width="42.0" height="15.0" style="fill:orange; stroke:rgb(0,0,0);" rx="1"/>
<text x="1263" y="169" style="font-family:sans-serif;font-size:10px;">
expr:11
</text>
<rect x="856.0" y="96.0" width="7.0" height="15.0" style="fill:orange; stroke:rgb(0,0,0);" rx="1"/>
<text x="858" y="105" style="font-family:sans-serif;font-size:10px;">
:
</text>
<rect x="932.375" y="64.0" width="7.0" height="15.0" style="fill:orange; stroke:rgb(0,0,0);" rx="1"/>
<text x="934" y="73" style="font-family:sans-serif;font-size:10px;">
;
</text>
<rect x="790.0" y="96.0" width="43.0" height="15.0" style="fill:orange; stroke:rgb(0,0,0);" rx="1"/>
<text x="792" y="105" style="font-family:sans-serif;font-size:10px;">
Number
</text>
<rect x="1413.4375" y="160.0" width="7.0" height="15.0" style="fill:orange; stroke:rgb(0,0,0);" rx="1"/>
<text x="1415" y="169" style="font-family:sans-serif;font-size:10px;">
.
</text>
<rect x="372.75" y="96.0" width="35.0" height="15.0" style="fill:orange; stroke:rgb(0,0,0);" rx="1"/>
<text x="374" y="105" style="font-family:sans-serif;font-size:10px;">
expr:6
</text>
<rect x="1459.1875" y="128.0" width="7.0" height="15.0" style="fill:orange; stroke:rgb(0,0,0);" rx="1"/>
<text x="1461" y="137" style="font-family:sans-serif;font-size:10px;">
;
</text>
<rect x="582.25" y="64.0" width="30.0" height="15.0" style="fill:orange; stroke:rgb(0,0,0);" rx="1"/>
<text x="584" y="73" style="font-family:sans-serif;font-size:10px;">
class
</text>
<rect x="679.5625" y="160.0" width="42.0" height="15.0" style="fill:orange; stroke:rgb(0,0,0);" rx="1"/>
<text x="681" y="169" style="font-family:sans-serif;font-size:10px;">
expr:20
</text>
<rect x="280.75" y="96.0" width="8.0" height="15.0" style="fill:orange; stroke:rgb(0,0,0);" rx="1"/>
<text x="282" y="105" style="font-family:sans-serif;font-size:10px;">
)
</text>
<rect x="760.0" y="96.0" width="10.0" height="15.0" style="fill:orange; stroke:rgb(0,0,0);" rx="1"/>
<text x="762" y="105" style="font-family:sans-serif;font-size:10px;">
b
</text>
<rect x="551.75" y="0.0" width="56.0" height="15.0" style="fill:orange; stroke:rgb(0,0,0);" rx="1"/>
<text x="553" y="9" style="font-family:sans-serif;font-size:10px;">
program:1
</text>
<rect x="376.75" y="128.0" width="7.0" height="15.0" style="fill:orange; stroke:rgb(0,0,0);" rx="1"/>
<text x="378" y="137" style="font-family:sans-serif;font-size:10px;">
;
</text>
<rect x="798.0625" y="160.0" width="53.0" height="15.0" style="fill:orange; stroke:rgb(0,0,0);" rx="1"/>
<text x="800" y="169" style="font-family:sans-serif;font-size:10px;">
set_value
</text>
<rect x="1348.1875" y="256.0" width="42.0" height="15.0" style="fill:orange; stroke:rgb(0,0,0);" rx="1"/>
<text x="1350" y="265" style="font-family:sans-serif;font-size:10px;">
expr:19
</text>
<rect x="670.25" y="64.0" width="8.0" height="15.0" style="fill:orange; stroke:rgb(0,0,0);" rx="1"/>
<text x="672" y="73" style="font-family:sans-serif;font-size:10px;">
{
</text>
<rect x="555.75" y="32.0" width="7.0" height="15.0" style="fill:orange; stroke:rgb(0,0,0);" rx="1"/>
<text x="557" y="41" style="font-family:sans-serif;font-size:10px;">
;
</text>
<rect x="1318.6875" y="256.0" width="8.0" height="15.0" style="fill:orange; stroke:rgb(0,0,0);" rx="1"/>
<text x="1320" y="265" style="font-family:sans-serif;font-size:10px;">
(
</text>
<rect x="1447.6875" y="256.0" width="8.0" height="15.0" style="fill:orange; stroke:rgb(0,0,0);" rx="1"/>
<text x="1449" y="265" style="font-family:sans-serif;font-size:10px;">
(
</text>
<rect x="558.25" y="128.0" width="20.0" height="15.0" style="fill:orange; stroke:rgb(0,0,0);" rx="1"/>
<text x="560" y="137" style="font-family:sans-serif;font-size:10px;">
var
</text>
<rect x="979.5" y="64.0" width="50.0" height="15.0" style="fill:orange; stroke:rgb(0,0,0);" rx="1"/>
<text x="981" y="73" style="font-family:sans-serif;font-size:10px;">
feature:1
</text>
<rect x="1126.5625" y="160.0" width="42.0" height="15.0" style="fill:orange; stroke:rgb(0,0,0);" rx="1"/>
<text x="1128" y="169" style="font-family:sans-serif;font-size:10px;">
expr:19
</text>
<rect x="1310.0625" y="160.0" width="8.0" height="15.0" style="fill:orange; stroke:rgb(0,0,0);" rx="1"/>
<text x="1312" y="169" style="font-family:sans-serif;font-size:10px;">
)
</text>
<rect x="742.8125" y="128.0" width="7.0" height="15.0" style="fill:orange; stroke:rgb(0,0,0);" rx="1"/>
<text x="744" y="137" style="font-family:sans-serif;font-size:10px;">
;
</text>
<rect x="85.0" y="64.0" width="8.0" height="15.0" style="fill:orange; stroke:rgb(0,0,0);" rx="1"/>
<text x="87" y="73" style="font-family:sans-serif;font-size:10px;">
{
</text>
<rect x="934.8125" y="128.0" width="7.0" height="15.0" style="fill:orange; stroke:rgb(0,0,0);" rx="1"/>
<text x="936" y="137" style="font-family:sans-serif;font-size:10px;">
;
</text>
<rect x="1464.4375" y="160.0" width="8.0" height="15.0" style="fill:orange; stroke:rgb(0,0,0);" rx="1"/>
<text x="1466" y="169" style="font-family:sans-serif;font-size:10px;">
(
</text>
<rect x="862.875" y="32.0" width="7.0" height="15.0" style="fill:orange; stroke:rgb(0,0,0);" rx="1"/>
<text x="864" y="41" style="font-family:sans-serif;font-size:10px;">
;
</text>
<rect x="262.125" y="32.0" width="62.0" height="15.0" style="fill:orange; stroke:rgb(0,0,0);" rx="1"/>
<text x="264" y="41" style="font-family:sans-serif;font-size:10px;">
class_def:1
</text>
<rect x="266.0" y="128.0" width="16.0" height="15.0" style="fill:orange; stroke:rgb(0,0,0);" rx="1"/>
<text x="268" y="137" style="font-family:sans-serif;font-size:10px;">
Int
</text>
<rect x="330.375" y="128.0" width="35.0" height="15.0" style="fill:orange; stroke:rgb(0,0,0);" rx="1"/>
<text x="332" y="137" style="font-family:sans-serif;font-size:10px;">
expr:1
</text>
<rect x="553.25" y="64.0" width="7.0" height="15.0" style="fill:orange; stroke:rgb(0,0,0);" rx="1"/>
<text x="555" y="73" style="font-family:sans-serif;font-size:10px;">
;
</text>
<rect x="1267.6875" y="256.0" width="7.0" height="15.0" style="fill:orange; stroke:rgb(0,0,0);" rx="1"/>
<text x="1269" y="265" style="font-family:sans-serif;font-size:10px;">
.
</text>
<rect x="215.0" y="128.0" width="31.0" height="15.0" style="fill:orange; stroke:rgb(0,0,0);" rx="1"/>
<text x="217" y="137" style="font-family:sans-serif;font-size:10px;">
value
</text>
<rect x="1417.1875" y="128.0" width="35.0" height="15.0" style="fill:orange; stroke:rgb(0,0,0);" rx="1"/>
<text x="1419" y="137" style="font-family:sans-serif;font-size:10px;">
expr:2
</text>
<rect x="308.75" y="96.0" width="43.0" height="15.0" style="fill:orange; stroke:rgb(0,0,0);" rx="1"/>
<text x="310" y="105" style="font-family:sans-serif;font-size:10px;">
Number
</text>
<rect x="497.25" y="64.0" width="50.0" height="15.0" style="fill:orange; stroke:rgb(0,0,0);" rx="1"/>
<text x="499" y="73" style="font-family:sans-serif;font-size:10px;">
feature:1
</text>
<rect x="547.25" y="96.0" width="42.0" height="15.0" style="fill:orange; stroke:rgb(0,0,0);" rx="1"/>
<text x="549" y="105" style="font-family:sans-serif;font-size:10px;">
expr:19
</text>
<rect x="1235.1875" y="288.0" width="10.0" height="15.0" style="fill:orange; stroke:rgb(0,0,0);" rx="1"/>
<text x="1237" y="297" style="font-family:sans-serif;font-size:10px;">
b
</text>
<rect x="958.3125" y="192.0" width="42.0" height="15.0" style="fill:orange; stroke:rgb(0,0,0);" rx="1"/>
<text x="960" y="201" style="font-family:sans-serif;font-size:10px;">
expr:18
</text>
<rect x="1203.9375" y="224.0" width="31.0" height="15.0" style="fill:orange; stroke:rgb(0,0,0);" rx="1"/>
<text x="1205" y="233" style="font-family:sans-serif;font-size:10px;">
value
</text>
<rect x="1281.1875" y="256.0" width="31.0" height="15.0" style="fill:orange; stroke:rgb(0,0,0);" rx="1"/>
<text x="1283" y="265" style="font-family:sans-serif;font-size:10px;">
value
</text>
<rect x="1333.6875" y="256.0" width="8.0" height="15.0" style="fill:orange; stroke:rgb(0,0,0);" rx="1"/>
<text x="1335" y="265" style="font-family:sans-serif;font-size:10px;">
)
</text>
<rect x="1079.5625" y="192.0" width="10.0" height="15.0" style="fill:orange; stroke:rgb(0,0,0);" rx="1"/>
<text x="1081" y="201" style="font-family:sans-serif;font-size:10px;">
3
</text>
<rect x="839.0" y="96.0" width="10.0" height="15.0" style="fill:orange; stroke:rgb(0,0,0);" rx="1"/>
<text x="841" y="105" style="font-family:sans-serif;font-size:10px;">
c
</text>
<rect x="1142.5625" y="192.0" width="10.0" height="15.0" style="fill:orange; stroke:rgb(0,0,0);" rx="1"/>
<text x="1144" y="201" style="font-family:sans-serif;font-size:10px;">
a
</text>
<rect x="361.625" y="192.0" width="31.0" height="15.0" style="fill:orange; stroke:rgb(0,0,0);" rx="1"/>
<text x="363" y="201" style="font-family:sans-serif;font-size:10px;">
value
</text>
<rect x="335.625" y="160.0" width="14.0" height="15.0" style="fill:orange; stroke:rgb(0,0,0);" rx="1"/>
<text x="337" y="169" style="font-family:sans-serif;font-size:10px;">
&lt;-
</text>
<rect x="156.75" y="96.0" width="53.0" height="15.0" style="fill:orange; stroke:rgb(0,0,0);" rx="1"/>
<text x="158" y="105" style="font-family:sans-serif;font-size:10px;">
set_value
</text>
<rect x="209.0" y="64.0" width="7.0" height="15.0" style="fill:orange; stroke:rgb(0,0,0);" rx="1"/>
<text x="211" y="73" style="font-family:sans-serif;font-size:10px;">
;
</text>
<rect x="443.125" y="128.0" width="7.0" height="15.0" style="fill:orange; stroke:rgb(0,0,0);" rx="1"/>
<text x="445" y="137" style="font-family:sans-serif;font-size:10px;">
;
</text>
<rect x="1364.9375" y="160.0" width="42.0" height="15.0" style="fill:orange; stroke:rgb(0,0,0);" rx="1"/>
<text x="1366" y="169" style="font-family:sans-serif;font-size:10px;">
expr:19
</text>
<rect x="794.375" y="32.0" width="62.0" height="15.0" style="fill:orange; stroke:rgb(0,0,0);" rx="1"/>
<text x="796" y="41" style="font-family:sans-serif;font-size:10px;">
class_def:1
</text>
<rect x="404.625" y="160.0" width="22.0" height="15.0" style="fill:orange; stroke:rgb(0,0,0);" rx="1"/>
<text x="406" y="169" style="font-family:sans-serif;font-size:10px;">
self
</text>
<rect x="857.0625" y="160.0" width="8.0" height="15.0" style="fill:orange; stroke:rgb(0,0,0);" rx="1"/>
<text x="859" y="169" style="font-family:sans-serif;font-size:10px;">
(
</text>
<rect x="887.5625" y="192.0" width="10.0" height="15.0" style="fill:orange; stroke:rgb(0,0,0);" rx="1"/>
<text x="889" y="201" style="font-family:sans-serif;font-size:10px;">
2
</text>
<rect x="935.0625" y="160.0" width="35.0" height="15.0" style="fill:orange; stroke:rgb(0,0,0);" rx="1"/>
<text x="937" y="169" style="font-family:sans-serif;font-size:10px;">
expr:1
</text>
<rect x="1400.4375" y="224.0" width="35.0" height="15.0" style="fill:orange; stroke:rgb(0,0,0);" rx="1"/>
<text x="1402" y="233" style="font-family:sans-serif;font-size:10px;">
expr:2
</text>
<rect x="496.75" y="96.0" width="7.0" height="15.0" style="fill:orange; stroke:rgb(0,0,0);" rx="1"/>
<text x="498" y="105" style="font-family:sans-serif;font-size:10px;">
:
</text>
<rect x="990.0625" y="160.0" width="53.0" height="15.0" style="fill:orange; stroke:rgb(0,0,0);" rx="1"/>
<text x="992" y="169" style="font-family:sans-serif;font-size:10px;">
set_value
</text>
<rect x="414.75" y="96.0" width="8.0" height="15.0" style="fill:orange; stroke:rgb(0,0,0);" rx="1"/>
<text x="416" y="105" style="font-family:sans-serif;font-size:10px;">
}
</text>
<rect x="1032.0" y="96.0" width="35.0" height="15.0" style="fill:orange; stroke:rgb(0,0,0);" rx="1"/>
<text x="1034" y="105" style="font-family:sans-serif;font-size:10px;">
expr:6
</text>
<rect x="1276.0625" y="192.0" width="10.0" height="15.0" style="fill:orange; stroke:rgb(0,0,0);" rx="1"/>
<text x="1278" y="201" style="font-family:sans-serif;font-size:10px;">
+
</text>
<rect x="728.8125" y="192.0" width="10.0" height="15.0" style="fill:orange; stroke:rgb(0,0,0);" rx="1"/>
<text x="730" y="201" style="font-family:sans-serif;font-size:10px;">
b
</text>
<rect x="711.0" y="96.0" width="43.0" height="15.0" style="fill:orange; stroke:rgb(0,0,0);" rx="1"/>
<text x="713" y="105" style="font-family:sans-serif;font-size:10px;">
Number
</text>
<rect x="574.3125" y="192.0" width="42.0" height="15.0" style="fill:orange; stroke:rgb(0,0,0);" rx="1"/>
<text x="576" y="201" style="font-family:sans-serif;font-size:10px;">
expr:18
</text>
<rect x="1271.4375" y="224.0" width="35.0" height="15.0" style="fill:orange; stroke:rgb(0,0,0);" rx="1"/>
<text x="1273" y="233" style="font-family:sans-serif;font-size:10px;">
expr:2
</text>
<rect x="276.0" y="64.0" width="50.0" height="15.0" style="fill:orange; stroke:rgb(0,0,0);" rx="1"/>
<text x="278" y="73" style="font-family:sans-serif;font-size:10px;">
feature:1
</text>
<rect x="777.0" y="96.0" width="7.0" height="15.0" style="fill:orange; stroke:rgb(0,0,0);" rx="1"/>
<text x="779" y="105" style="font-family:sans-serif;font-size:10px;">
:
</text>
<rect x="315.375" y="128.0" width="8.0" height="15.0" style="fill:orange; stroke:rgb(0,0,0);" rx="1"/>
<text x="317" y="137" style="font-family:sans-serif;font-size:10px;">
{
</text>
<rect x="252.5" y="128.0" width="7.0" height="15.0" style="fill:orange; stroke:rgb(0,0,0);" rx="1"/>
<text x="254" y="137" style="font-family:sans-serif;font-size:10px;">
:
</text>
<rect x="728.0625" y="160.0" width="8.0" height="15.0" style="fill:orange; stroke:rgb(0,0,0);" rx="1"/>
<text x="730" y="169" style="font-family:sans-serif;font-size:10px;">
)
</text>
<rect x="1175.0625" y="160.0" width="7.0" height="15.0" style="fill:orange; stroke:rgb(0,0,0);" rx="1"/>
<text x="1177" y="169" style="font-family:sans-serif;font-size:10px;">
.
</text>
<rect x="977.0625" y="160.0" width="7.0" height="15.0" style="fill:orange; stroke:rgb(0,0,0);" rx="1"/>
<text x="979" y="169" style="font-family:sans-serif;font-size:10px;">
.
</text>
<rect x="698.0" y="96.0" width="7.0" height="15.0" style="fill:orange; stroke:rgb(0,0,0);" rx="1"/>
<text x="700" y="105" style="font-family:sans-serif;font-size:10px;">
:
</text>
<rect x="532.75" y="96.0" width="8.0" height="15.0" style="fill:orange; stroke:rgb(0,0,0);" rx="1"/>
<text x="534" y="105" style="font-family:sans-serif;font-size:10px;">
{
</text>
<rect x="824.25" y="64.0" width="7.0" height="15.0" style="fill:orange; stroke:rgb(0,0,0);" rx="1"/>
<text x="826" y="73" style="font-family:sans-serif;font-size:10px;">
;
</text>
<rect x="1141.9375" y="224.0" width="42.0" height="15.0" style="fill:orange; stroke:rgb(0,0,0);" rx="1"/>
<text x="1143" y="233" style="font-family:sans-serif;font-size:10px;">
expr:19
</text>
<rect x="0.0" y="64.0" width="30.0" height="15.0" style="fill:orange; stroke:rgb(0,0,0);" rx="1"/>
<text x="2" y="73" style="font-family:sans-serif;font-size:10px;">
class
</text>
<rect x="429.25" y="96.0" width="31.0" height="15.0" style="fill:orange; stroke:rgb(0,0,0);" rx="1"/>
<text x="431" y="105" style="font-family:sans-serif;font-size:10px;">
value
</text>
<rect x="394.625" y="128.0" width="42.0" height="15.0" style="fill:orange; stroke:rgb(0,0,0);" rx="1"/>
<text x="396" y="137" style="font-family:sans-serif;font-size:10px;">
expr:23
</text>
<rect x="1332.4375" y="192.0" width="42.0" height="15.0" style="fill:orange; stroke:rgb(0,0,0);" rx="1"/>
<text x="1334" y="201" style="font-family:sans-serif;font-size:10px;">
expr:10
</text>
<rect x="1410.1875" y="256.0" width="31.0" height="15.0" style="fill:orange; stroke:rgb(0,0,0);" rx="1"/>
<text x="1412" y="265" style="font-family:sans-serif;font-size:10px;">
value
</text>
<rect x="966.0" y="96.0" width="8.0" height="15.0" style="fill:orange; stroke:rgb(0,0,0);" rx="1"/>
<text x="968" y="105" style="font-family:sans-serif;font-size:10px;">
)
</text>
<rect x="573.8125" y="224.0" width="43.0" height="15.0" style="fill:orange; stroke:rgb(0,0,0);" rx="1"/>
<text x="575" y="233" style="font-family:sans-serif;font-size:10px;">
Number
</text>
<rect x="824.8125" y="128.0" width="35.0" height="15.0" style="fill:orange; stroke:rgb(0,0,0);" rx="1"/>
<text x="826" y="137" style="font-family:sans-serif;font-size:10px;">
expr:2
</text>
<rect x="871.5625" y="160.0" width="42.0" height="15.0" style="fill:orange; stroke:rgb(0,0,0);" rx="1"/>
<text x="873" y="169" style="font-family:sans-serif;font-size:10px;">
expr:20
</text>
<rect x="1157.9375" y="256.0" width="10.0" height="15.0" style="fill:orange; stroke:rgb(0,0,0);" rx="1"/>
<text x="1159" y="265" style="font-family:sans-serif;font-size:10px;">
a
</text>
<rect x="920.0625" y="160.0" width="8.0" height="15.0" style="fill:orange; stroke:rgb(0,0,0);" rx="1"/>
<text x="922" y="169" style="font-family:sans-serif;font-size:10px;">
)
</text>
<rect x="121.75" y="96.0" width="7.0" height="15.0" style="fill:orange; stroke:rgb(0,0,0);" rx="1"/>
<text x="123" y="105" style="font-family:sans-serif;font-size:10px;">
:
</text>
<rect x="356.125" y="160.0" width="42.0" height="15.0" style="fill:orange; stroke:rgb(0,0,0);" rx="1"/>
<text x="358" y="169" style="font-family:sans-serif;font-size:10px;">
expr:19
</text>
<rect x="994.5" y="96.0" width="16.0" height="15.0" style="fill:orange; stroke:rgb(0,0,0);" rx="1"/>
<text x="996" y="105" style="font-family:sans-serif;font-size:10px;">
Int
</text>
<rect x="665.0625" y="160.0" width="8.0" height="15.0" style="fill:orange; stroke:rgb(0,0,0);" rx="1"/>
<text x="667" y="169" style="font-family:sans-serif;font-size:10px;">
(
</text>
<rect x="695.5625" y="192.0" width="10.0" height="15.0" style="fill:orange; stroke:rgb(0,0,0);" rx="1"/>
<text x="697" y="201" style="font-family:sans-serif;font-size:10px;">
1
</text>
<rect x="510.25" y="96.0" width="16.0" height="15.0" style="fill:orange; stroke:rgb(0,0,0);" rx="1"/>
<text x="512" y="105" style="font-family:sans-serif;font-size:10px;">
Int
</text>
<rect x="632.8125" y="128.0" width="35.0" height="15.0" style="fill:orange; stroke:rgb(0,0,0);" rx="1"/>
<text x="634" y="137" style="font-family:sans-serif;font-size:10px;">
expr:2
</text>
<rect x="1241.4375" y="224.0" width="8.0" height="15.0" style="fill:orange; stroke:rgb(0,0,0);" rx="1"/>
<text x="1243" y="233" style="font-family:sans-serif;font-size:10px;">
(
</text>
<rect x="308.625" y="160.0" width="20.0" height="15.0" style="fill:orange; stroke:rgb(0,0,0);" rx="1"/>
<text x="310" y="169" style="font-family:sans-serif;font-size:10px;">
var
</text>
<rect x="1247.0625" y="160.0" width="8.0" height="15.0" style="fill:orange; stroke:rgb(0,0,0);" rx="1"/>
<text x="1249" y="169" style="font-family:sans-serif;font-size:10px;">
(
</text>
<rect x="920.8125" y="192.0" width="10.0" height="15.0" style="fill:orange; stroke:rgb(0,0,0);" rx="1"/>
<text x="922" y="201" style="font-family:sans-serif;font-size:10px;">
c
</text>
<rect x="1349.4375" y="224.0" width="8.0" height="15.0" style="fill:orange; stroke:rgb(0,0,0);" rx="1"/>
<text x="1351" y="233" style="font-family:sans-serif;font-size:10px;">
*
</text>
<rect x="763.25" y="64.0" width="50.0" height="15.0" style="fill:orange; stroke:rgb(0,0,0);" rx="1"/>
<text x="765" y="73" style="font-family:sans-serif;font-size:10px;">
feature:2
</text>
<rect x="595.75" y="96.0" width="8.0" height="15.0" style="fill:orange; stroke:rgb(0,0,0);" rx="1"/>
<text x="597" y="105" style="font-family:sans-serif;font-size:10px;">
}
</text>
<rect x="957.8125" y="224.0" width="43.0" height="15.0" style="fill:orange; stroke:rgb(0,0,0);" rx="1"/>
<text x="959" y="233" style="font-family:sans-serif;font-size:10px;">
Number
</text>
<rect x="1190.4375" y="224.0" width="7.0" height="15.0" style="fill:orange; stroke:rgb(0,0,0);" rx="1"/>
<text x="1192" y="233" style="font-family:sans-serif;font-size:10px;">
.
</text>
<rect x="684.25" y="64.0" width="50.0" height="15.0" style="fill:orange; stroke:rgb(0,0,0);" rx="1"/>
<text x="686" y="73" style="font-family:sans-serif;font-size:10px;">
feature:2
</text>
<rect x="1213.3125" y="128.0" width="35.0" height="15.0" style="fill:orange; stroke:rgb(0,0,0);" rx="1"/>
<text x="1215" y="137" style="font-family:sans-serif;font-size:10px;">
expr:2
</text>
<rect x="1364.1875" y="288.0" width="10.0" height="15.0" style="fill:orange; stroke:rgb(0,0,0);" rx="1"/>
<text x="1366" y="297" style="font-family:sans-serif;font-size:10px;">
c
</text>
<rect x="135.25" y="96.0" width="16.0" height="15.0" style="fill:orange; stroke:rgb(0,0,0);" rx="1"/>
<text x="137" y="105" style="font-family:sans-serif;font-size:10px;">
Int
</text>
<rect x="1462.6875" y="256.0" width="8.0" height="15.0" style="fill:orange; stroke:rgb(0,0,0);" rx="1"/>
<text x="1464" y="265" style="font-family:sans-serif;font-size:10px;">
)
</text>
<rect x="1017.0" y="96.0" width="8.0" height="15.0" style="fill:orange; stroke:rgb(0,0,0);" rx="1"/>
<text x="1019" y="105" style="font-family:sans-serif;font-size:10px;">
{
</text>
<rect x="766.3125" y="192.0" width="42.0" height="15.0" style="fill:orange; stroke:rgb(0,0,0);" rx="1"/>
<text x="768" y="201" style="font-family:sans-serif;font-size:10px;">
expr:18
</text>
<rect x="357.75" y="96.0" width="8.0" height="15.0" style="fill:orange; stroke:rgb(0,0,0);" rx="1"/>
<text x="359" y="105" style="font-family:sans-serif;font-size:10px;">
{
</text>
<rect x="981.0" y="96.0" width="7.0" height="15.0" style="fill:orange; stroke:rgb(0,0,0);" rx="1"/>
<text x="983" y="105" style="font-family:sans-serif;font-size:10px;">
:
</text>
<rect x="618.25" y="64.0" width="46.0" height="15.0" style="fill:orange; stroke:rgb(0,0,0);" rx="1"/>
<text x="620" y="73" style="font-family:sans-serif;font-size:10px;">
Example
</text>
<rect x="745.8125" y="192.0" width="14.0" height="15.0" style="fill:orange; stroke:rgb(0,0,0);" rx="1"/>
<text x="747" y="201" style="font-family:sans-serif;font-size:10px;">
&lt;-
</text>
<rect x="215.75" y="96.0" width="8.0" height="15.0" style="fill:orange; stroke:rgb(0,0,0);" rx="1"/>
<text x="217" y="105" style="font-family:sans-serif;font-size:10px;">
(
</text>
<rect x="481.75" y="96.0" width="8.0" height="15.0" style="fill:orange; stroke:rgb(0,0,0);" rx="1"/>
<text x="483" y="105" style="font-family:sans-serif;font-size:10px;">
)
</text>
<rect x="408.125" y="64.0" width="7.0" height="15.0" style="fill:orange; stroke:rgb(0,0,0);" rx="1"/>
<text x="410" y="73" style="font-family:sans-serif;font-size:10px;">
;
</text>
<rect x="229.75" y="96.0" width="45.0" height="15.0" style="fill:orange; stroke:rgb(0,0,0);" rx="1"/>
<text x="231" y="105" style="font-family:sans-serif;font-size:10px;">
formal:1
</text>
<rect x="536.8125" y="192.0" width="10.0" height="15.0" style="fill:orange; stroke:rgb(0,0,0);" rx="1"/>
<text x="538" y="201" style="font-family:sans-serif;font-size:10px;">
a
</text>
<rect x="551.0625" y="160.0" width="35.0" height="15.0" style="fill:orange; stroke:rgb(0,0,0);" rx="1"/>
<text x="553" y="169" style="font-family:sans-serif;font-size:10px;">
expr:1
</text>
<rect x="553.8125" y="192.0" width="14.0" height="15.0" style="fill:orange; stroke:rgb(0,0,0);" rx="1"/>
<text x="555" y="201" style="font-family:sans-serif;font-size:10px;">
&lt;-
</text>
<rect x="743.0625" y="160.0" width="35.0" height="15.0" style="fill:orange; stroke:rgb(0,0,0);" rx="1"/>
<text x="745" y="169" style="font-family:sans-serif;font-size:10px;">
expr:1
</text>
<rect x="36.0" y="64.0" width="43.0" height="15.0" style="fill:orange; stroke:rgb(0,0,0);" rx="1"/>
<text x="38" y="73" style="font-family:sans-serif;font-size:10px;">
Number
</text>
<rect x="606.0625" y="160.0" width="53.0" height="15.0" style="fill:orange; stroke:rgb(0,0,0);" rx="1"/>
<text x="608" y="169" style="font-family:sans-serif;font-size:10px;">
set_value
</text>
<rect x="617.8125" y="128.0" width="8.0" height="15.0" style="fill:orange; stroke:rgb(0,0,0);" rx="1"/>
<text x="619" y="137" style="font-family:sans-serif;font-size:10px;">
{
</text>
<rect x="1129.0625" y="128.0" width="7.0" height="15.0" style="fill:orange; stroke:rgb(0,0,0);" rx="1"/>
<text x="1131" y="137" style="font-family:sans-serif;font-size:10px;">
;
</text>
<rect x="745.25" y="64.0" width="7.0" height="15.0" style="fill:orange; stroke:rgb(0,0,0);" rx="1"/>
<text x="747" y="73" style="font-family:sans-serif;font-size:10px;">
;
</text>
<rect x="765.8125" y="224.0" width="43.0" height="15.0" style="fill:orange; stroke:rgb(0,0,0);" rx="1"/>
<text x="767" y="233" style="font-family:sans-serif;font-size:10px;">
Number
</text>
<rect x="1479.4375" y="160.0" width="8.0" height="15.0" style="fill:orange; stroke:rgb(0,0,0);" rx="1"/>
<text x="1481" y="169" style="font-family:sans-serif;font-size:10px;">
)
</text>
<rect x="295.75" y="96.0" width="7.0" height="15.0" style="fill:orange; stroke:rgb(0,0,0);" rx="1"/>
<text x="297" y="105" style="font-family:sans-serif;font-size:10px;">
:
</text>
<rect x="1426.9375" y="160.0" width="31.0" height="15.0" style="fill:orange; stroke:rgb(0,0,0);" rx="1"/>
<text x="1428" y="169" style="font-family:sans-serif;font-size:10px;">
value
</text>
<rect x="1035.5" y="64.0" width="7.0" height="15.0" style="fill:orange; stroke:rgb(0,0,0);" rx="1"/>
<text x="1037" y="73" style="font-family:sans-serif;font-size:10px;">
;
</text>
<rect x="593.0625" y="160.0" width="7.0" height="15.0" style="fill:orange; stroke:rgb(0,0,0);" rx="1"/>
<text x="595" y="169" style="font-family:sans-serif;font-size:10px;">
.
</text>
<rect x="785.0625" y="160.0" width="7.0" height="15.0" style="fill:orange; stroke:rgb(0,0,0);" rx="1"/>
<text x="787" y="169" style="font-family:sans-serif;font-size:10px;">
.
</text>
<rect x="1329.25" y="128.0" width="7.0" height="15.0" style="fill:orange; stroke:rgb(0,0,0);" rx="1"/>
<text x="1331" y="137" style="font-family:sans-serif;font-size:10px;">
;
</text>
<rect x="869.0" y="96.0" width="43.0" height="15.0" style="fill:orange; stroke:rgb(0,0,0);" rx="1"/>
<text x="871" y="105" style="font-family:sans-serif;font-size:10px;">
Number
</text>
<rect x="1063.5625" y="160.0" width="42.0" height="15.0" style="fill:orange; stroke:rgb(0,0,0);" rx="1"/>
<text x="1065" y="169" style="font-family:sans-serif;font-size:10px;">
expr:20
</text>
<rect x="1473.1875" y="128.0" width="8.0" height="15.0" style="fill:orange; stroke:rgb(0,0,0);" rx="1"/>
<text x="1475" y="137" style="font-family:sans-serif;font-size:10px;">
}
</text>
<rect x="466.75" y="96.0" width="8.0" height="15.0" style="fill:orange; stroke:rgb(0,0,0);" rx="1"/>
<text x="468" y="105" style="font-family:sans-serif;font-size:10px;">
(
</text>
<rect x="951.0" y="96.0" width="8.0" height="15.0" style="fill:orange; stroke:rgb(0,0,0);" rx="1"/>
<text x="953" y="105" style="font-family:sans-serif;font-size:10px;">
(
</text>
<rect x="94.75" y="96.0" width="20.0" height="15.0" style="fill:orange; stroke:rgb(0,0,0);" rx="1"/>
<text x="96" y="105" style="font-family:sans-serif;font-size:10px;">
var
</text>
<rect x="567.25" y="64.0" width="8.0" height="15.0" style="fill:orange; stroke:rgb(0,0,0);" rx="1"/>
<text x="569" y="73" style="font-family:sans-serif;font-size:10px;">
}
</text>
</svg>